<mxfile host="app.diagrams.net" modified="2020-10-17T14:44:20.807Z" agent="5.0 (Macintosh; Intel Mac OS X 10_15_6) AppleWebKit/537.36 (KHTML, like Gecko) Chrome/85.0.4183.121 Safari/537.36" etag="HixZWRjKPjhz3Pwxl4L3" version="13.8.0" type="github">
  <diagram id="R2lEEEUBdFMjLlhIrx00" name="Page-1">
    <mxGraphModel dx="938" dy="541" grid="1" gridSize="10" guides="1" tooltips="1" connect="1" arrows="1" fold="1" page="1" pageScale="1" pageWidth="850" pageHeight="1100" math="0" shadow="0" extFonts="Permanent Marker^https://fonts.googleapis.com/css?family=Permanent+Marker">
      <root>
        <mxCell id="0" />
        <mxCell id="1" parent="0" />
        <mxCell id="kgfX2LjA7u4LWj4O0vmA-560" value="Sales" style="shape=table;startSize=30;container=1;collapsible=1;childLayout=tableLayout;fixedRows=1;rowLines=0;fontStyle=1;align=center;resizeLast=1;" vertex="1" parent="1">
          <mxGeometry x="20" y="560" width="260" height="280" as="geometry" />
        </mxCell>
        <mxCell id="kgfX2LjA7u4LWj4O0vmA-561" value="" style="shape=partialRectangle;collapsible=0;dropTarget=0;pointerEvents=0;fillColor=none;points=[[0,0.5],[1,0.5]];portConstraint=eastwest;top=0;left=0;right=0;bottom=0;" vertex="1" parent="kgfX2LjA7u4LWj4O0vmA-560">
          <mxGeometry y="30" width="260" height="30" as="geometry" />
        </mxCell>
        <mxCell id="kgfX2LjA7u4LWj4O0vmA-562" value="" style="shape=partialRectangle;overflow=hidden;connectable=0;fillColor=none;top=0;left=0;bottom=0;right=0;" vertex="1" parent="kgfX2LjA7u4LWj4O0vmA-561">
          <mxGeometry width="30" height="30" as="geometry" />
        </mxCell>
        <mxCell id="kgfX2LjA7u4LWj4O0vmA-563" value="`SaleID` INT NOT NULL" style="shape=partialRectangle;overflow=hidden;connectable=0;fillColor=none;top=0;left=0;bottom=0;right=0;align=left;spacingLeft=6;" vertex="1" parent="kgfX2LjA7u4LWj4O0vmA-561">
          <mxGeometry x="30" width="230" height="30" as="geometry" />
        </mxCell>
        <mxCell id="kgfX2LjA7u4LWj4O0vmA-564" value="" style="shape=partialRectangle;collapsible=0;dropTarget=0;pointerEvents=0;fillColor=none;points=[[0,0.5],[1,0.5]];portConstraint=eastwest;top=0;left=0;right=0;bottom=0;" vertex="1" parent="kgfX2LjA7u4LWj4O0vmA-560">
          <mxGeometry y="60" width="260" height="30" as="geometry" />
        </mxCell>
        <mxCell id="kgfX2LjA7u4LWj4O0vmA-565" value="" style="shape=partialRectangle;overflow=hidden;connectable=0;fillColor=none;top=0;left=0;bottom=0;right=0;" vertex="1" parent="kgfX2LjA7u4LWj4O0vmA-564">
          <mxGeometry width="30" height="30" as="geometry" />
        </mxCell>
        <mxCell id="kgfX2LjA7u4LWj4O0vmA-566" value="`CustomerID` INT NULL" style="shape=partialRectangle;overflow=hidden;connectable=0;fillColor=none;top=0;left=0;bottom=0;right=0;align=left;spacingLeft=6;" vertex="1" parent="kgfX2LjA7u4LWj4O0vmA-564">
          <mxGeometry x="30" width="230" height="30" as="geometry" />
        </mxCell>
        <mxCell id="kgfX2LjA7u4LWj4O0vmA-567" value="" style="shape=partialRectangle;collapsible=0;dropTarget=0;pointerEvents=0;fillColor=none;points=[[0,0.5],[1,0.5]];portConstraint=eastwest;top=0;left=0;right=0;bottom=0;" vertex="1" parent="kgfX2LjA7u4LWj4O0vmA-560">
          <mxGeometry y="90" width="260" height="30" as="geometry" />
        </mxCell>
        <mxCell id="kgfX2LjA7u4LWj4O0vmA-568" value="" style="shape=partialRectangle;overflow=hidden;connectable=0;fillColor=none;top=0;left=0;bottom=0;right=0;" vertex="1" parent="kgfX2LjA7u4LWj4O0vmA-567">
          <mxGeometry width="30" height="30" as="geometry" />
        </mxCell>
        <mxCell id="kgfX2LjA7u4LWj4O0vmA-569" value="`VechicleID` VARCHAR(45) NULL" style="shape=partialRectangle;overflow=hidden;connectable=0;fillColor=none;top=0;left=0;bottom=0;right=0;align=left;spacingLeft=6;" vertex="1" parent="kgfX2LjA7u4LWj4O0vmA-567">
          <mxGeometry x="30" width="230" height="30" as="geometry" />
        </mxCell>
        <mxCell id="kgfX2LjA7u4LWj4O0vmA-570" value="" style="shape=partialRectangle;collapsible=0;dropTarget=0;pointerEvents=0;fillColor=none;points=[[0,0.5],[1,0.5]];portConstraint=eastwest;top=0;left=0;right=0;bottom=0;" vertex="1" parent="kgfX2LjA7u4LWj4O0vmA-560">
          <mxGeometry y="120" width="260" height="30" as="geometry" />
        </mxCell>
        <mxCell id="kgfX2LjA7u4LWj4O0vmA-571" value="" style="shape=partialRectangle;overflow=hidden;connectable=0;fillColor=none;top=0;left=0;bottom=0;right=0;" vertex="1" parent="kgfX2LjA7u4LWj4O0vmA-570">
          <mxGeometry width="30" height="30" as="geometry" />
        </mxCell>
        <mxCell id="kgfX2LjA7u4LWj4O0vmA-572" value="`SaleDate` DATETIME NULL" style="shape=partialRectangle;overflow=hidden;connectable=0;fillColor=none;top=0;left=0;bottom=0;right=0;align=left;spacingLeft=6;" vertex="1" parent="kgfX2LjA7u4LWj4O0vmA-570">
          <mxGeometry x="30" width="230" height="30" as="geometry" />
        </mxCell>
        <mxCell id="kgfX2LjA7u4LWj4O0vmA-573" value="" style="shape=partialRectangle;collapsible=0;dropTarget=0;pointerEvents=0;fillColor=none;points=[[0,0.5],[1,0.5]];portConstraint=eastwest;top=0;left=0;right=0;bottom=0;" vertex="1" parent="kgfX2LjA7u4LWj4O0vmA-560">
          <mxGeometry y="150" width="260" height="30" as="geometry" />
        </mxCell>
        <mxCell id="kgfX2LjA7u4LWj4O0vmA-574" value="" style="shape=partialRectangle;overflow=hidden;connectable=0;fillColor=none;top=0;left=0;bottom=0;right=0;" vertex="1" parent="kgfX2LjA7u4LWj4O0vmA-573">
          <mxGeometry width="30" height="30" as="geometry" />
        </mxCell>
        <mxCell id="kgfX2LjA7u4LWj4O0vmA-575" value="`DiscountApplied` VARCHAR(45) NULL" style="shape=partialRectangle;overflow=hidden;connectable=0;fillColor=none;top=0;left=0;bottom=0;right=0;align=left;spacingLeft=6;" vertex="1" parent="kgfX2LjA7u4LWj4O0vmA-573">
          <mxGeometry x="30" width="230" height="30" as="geometry" />
        </mxCell>
        <mxCell id="kgfX2LjA7u4LWj4O0vmA-576" value="" style="shape=partialRectangle;collapsible=0;dropTarget=0;pointerEvents=0;fillColor=none;points=[[0,0.5],[1,0.5]];portConstraint=eastwest;top=0;left=0;right=0;bottom=0;" vertex="1" parent="kgfX2LjA7u4LWj4O0vmA-560">
          <mxGeometry y="180" width="260" height="30" as="geometry" />
        </mxCell>
        <mxCell id="kgfX2LjA7u4LWj4O0vmA-577" value="" style="shape=partialRectangle;overflow=hidden;connectable=0;fillColor=none;top=0;left=0;bottom=0;right=0;" vertex="1" parent="kgfX2LjA7u4LWj4O0vmA-576">
          <mxGeometry width="30" height="30" as="geometry" />
        </mxCell>
        <mxCell id="kgfX2LjA7u4LWj4O0vmA-578" value="`TradeInPrice` FLOAT NULL" style="shape=partialRectangle;overflow=hidden;connectable=0;fillColor=none;top=0;left=0;bottom=0;right=0;align=left;spacingLeft=6;" vertex="1" parent="kgfX2LjA7u4LWj4O0vmA-576">
          <mxGeometry x="30" width="230" height="30" as="geometry" />
        </mxCell>
        <mxCell id="kgfX2LjA7u4LWj4O0vmA-579" value="" style="shape=partialRectangle;collapsible=0;dropTarget=0;pointerEvents=0;fillColor=none;points=[[0,0.5],[1,0.5]];portConstraint=eastwest;top=0;left=0;right=0;bottom=0;" vertex="1" parent="kgfX2LjA7u4LWj4O0vmA-560">
          <mxGeometry y="210" width="260" height="30" as="geometry" />
        </mxCell>
        <mxCell id="kgfX2LjA7u4LWj4O0vmA-580" value="" style="shape=partialRectangle;overflow=hidden;connectable=0;fillColor=none;top=0;left=0;bottom=0;right=0;" vertex="1" parent="kgfX2LjA7u4LWj4O0vmA-579">
          <mxGeometry width="30" height="30" as="geometry" />
        </mxCell>
        <mxCell id="kgfX2LjA7u4LWj4O0vmA-581" value="`PurchasePrice` FLOAT NULL" style="shape=partialRectangle;overflow=hidden;connectable=0;fillColor=none;top=0;left=0;bottom=0;right=0;align=left;spacingLeft=6;" vertex="1" parent="kgfX2LjA7u4LWj4O0vmA-579">
          <mxGeometry x="30" width="230" height="30" as="geometry" />
        </mxCell>
        <mxCell id="kgfX2LjA7u4LWj4O0vmA-582" value="" style="shape=partialRectangle;collapsible=0;dropTarget=0;pointerEvents=0;fillColor=none;points=[[0,0.5],[1,0.5]];portConstraint=eastwest;top=0;left=0;right=0;bottom=0;" vertex="1" parent="kgfX2LjA7u4LWj4O0vmA-560">
          <mxGeometry y="240" width="260" height="30" as="geometry" />
        </mxCell>
        <mxCell id="kgfX2LjA7u4LWj4O0vmA-583" value="" style="shape=partialRectangle;overflow=hidden;connectable=0;fillColor=none;top=0;left=0;bottom=0;right=0;" vertex="1" parent="kgfX2LjA7u4LWj4O0vmA-582">
          <mxGeometry width="30" height="30" as="geometry" />
        </mxCell>
        <mxCell id="kgfX2LjA7u4LWj4O0vmA-584" value="`RepeatCustomer` TINYINT NULL)" style="shape=partialRectangle;overflow=hidden;connectable=0;fillColor=none;top=0;left=0;bottom=0;right=0;align=left;spacingLeft=6;" vertex="1" parent="kgfX2LjA7u4LWj4O0vmA-582">
          <mxGeometry x="30" width="230" height="30" as="geometry" />
        </mxCell>
        <mxCell id="kgfX2LjA7u4LWj4O0vmA-516" value="IF NOT EXISTS `mydb`.`Customers`" style="shape=table;startSize=30;container=1;collapsible=1;childLayout=tableLayout;fixedRows=1;rowLines=0;fontStyle=1;align=center;resizeLast=1;" vertex="1" parent="1">
          <mxGeometry x="590" y="560" width="240" height="340" as="geometry" />
        </mxCell>
        <mxCell id="kgfX2LjA7u4LWj4O0vmA-517" value="" style="shape=partialRectangle;collapsible=0;dropTarget=0;pointerEvents=0;fillColor=none;points=[[0,0.5],[1,0.5]];portConstraint=eastwest;top=0;left=0;right=0;bottom=0;" vertex="1" parent="kgfX2LjA7u4LWj4O0vmA-516">
          <mxGeometry y="30" width="240" height="30" as="geometry" />
        </mxCell>
        <mxCell id="kgfX2LjA7u4LWj4O0vmA-518" value="" style="shape=partialRectangle;overflow=hidden;connectable=0;fillColor=none;top=0;left=0;bottom=0;right=0;" vertex="1" parent="kgfX2LjA7u4LWj4O0vmA-517">
          <mxGeometry width="30" height="30" as="geometry" />
        </mxCell>
        <mxCell id="kgfX2LjA7u4LWj4O0vmA-519" value="`CustomerID` INT NOT NULL" style="shape=partialRectangle;overflow=hidden;connectable=0;fillColor=none;top=0;left=0;bottom=0;right=0;align=left;spacingLeft=6;" vertex="1" parent="kgfX2LjA7u4LWj4O0vmA-517">
          <mxGeometry x="30" width="210" height="30" as="geometry" />
        </mxCell>
        <mxCell id="kgfX2LjA7u4LWj4O0vmA-520" value="" style="shape=partialRectangle;collapsible=0;dropTarget=0;pointerEvents=0;fillColor=none;points=[[0,0.5],[1,0.5]];portConstraint=eastwest;top=0;left=0;right=0;bottom=0;" vertex="1" parent="kgfX2LjA7u4LWj4O0vmA-516">
          <mxGeometry y="60" width="240" height="30" as="geometry" />
        </mxCell>
        <mxCell id="kgfX2LjA7u4LWj4O0vmA-521" value="" style="shape=partialRectangle;overflow=hidden;connectable=0;fillColor=none;top=0;left=0;bottom=0;right=0;" vertex="1" parent="kgfX2LjA7u4LWj4O0vmA-520">
          <mxGeometry width="30" height="30" as="geometry" />
        </mxCell>
        <mxCell id="kgfX2LjA7u4LWj4O0vmA-522" value="`FirstName` VARCHAR(45) NULL" style="shape=partialRectangle;overflow=hidden;connectable=0;fillColor=none;top=0;left=0;bottom=0;right=0;align=left;spacingLeft=6;" vertex="1" parent="kgfX2LjA7u4LWj4O0vmA-520">
          <mxGeometry x="30" width="210" height="30" as="geometry" />
        </mxCell>
        <mxCell id="kgfX2LjA7u4LWj4O0vmA-523" value="" style="shape=partialRectangle;collapsible=0;dropTarget=0;pointerEvents=0;fillColor=none;points=[[0,0.5],[1,0.5]];portConstraint=eastwest;top=0;left=0;right=0;bottom=0;" vertex="1" parent="kgfX2LjA7u4LWj4O0vmA-516">
          <mxGeometry y="90" width="240" height="30" as="geometry" />
        </mxCell>
        <mxCell id="kgfX2LjA7u4LWj4O0vmA-524" value="" style="shape=partialRectangle;overflow=hidden;connectable=0;fillColor=none;top=0;left=0;bottom=0;right=0;" vertex="1" parent="kgfX2LjA7u4LWj4O0vmA-523">
          <mxGeometry width="30" height="30" as="geometry" />
        </mxCell>
        <mxCell id="kgfX2LjA7u4LWj4O0vmA-525" value="`LastName` VARCHAR(45) NULL" style="shape=partialRectangle;overflow=hidden;connectable=0;fillColor=none;top=0;left=0;bottom=0;right=0;align=left;spacingLeft=6;" vertex="1" parent="kgfX2LjA7u4LWj4O0vmA-523">
          <mxGeometry x="30" width="210" height="30" as="geometry" />
        </mxCell>
        <mxCell id="kgfX2LjA7u4LWj4O0vmA-526" value="" style="shape=partialRectangle;collapsible=0;dropTarget=0;pointerEvents=0;fillColor=none;points=[[0,0.5],[1,0.5]];portConstraint=eastwest;top=0;left=0;right=0;bottom=0;" vertex="1" parent="kgfX2LjA7u4LWj4O0vmA-516">
          <mxGeometry y="120" width="240" height="30" as="geometry" />
        </mxCell>
        <mxCell id="kgfX2LjA7u4LWj4O0vmA-527" value="" style="shape=partialRectangle;overflow=hidden;connectable=0;fillColor=none;top=0;left=0;bottom=0;right=0;" vertex="1" parent="kgfX2LjA7u4LWj4O0vmA-526">
          <mxGeometry width="30" height="30" as="geometry" />
        </mxCell>
        <mxCell id="kgfX2LjA7u4LWj4O0vmA-528" value="`MI` VARCHAR(45) NULL" style="shape=partialRectangle;overflow=hidden;connectable=0;fillColor=none;top=0;left=0;bottom=0;right=0;align=left;spacingLeft=6;" vertex="1" parent="kgfX2LjA7u4LWj4O0vmA-526">
          <mxGeometry x="30" width="210" height="30" as="geometry" />
        </mxCell>
        <mxCell id="kgfX2LjA7u4LWj4O0vmA-529" value="" style="shape=partialRectangle;collapsible=0;dropTarget=0;pointerEvents=0;fillColor=none;points=[[0,0.5],[1,0.5]];portConstraint=eastwest;top=0;left=0;right=0;bottom=0;" vertex="1" parent="kgfX2LjA7u4LWj4O0vmA-516">
          <mxGeometry y="150" width="240" height="30" as="geometry" />
        </mxCell>
        <mxCell id="kgfX2LjA7u4LWj4O0vmA-530" value="" style="shape=partialRectangle;overflow=hidden;connectable=0;fillColor=none;top=0;left=0;bottom=0;right=0;" vertex="1" parent="kgfX2LjA7u4LWj4O0vmA-529">
          <mxGeometry width="30" height="30" as="geometry" />
        </mxCell>
        <mxCell id="kgfX2LjA7u4LWj4O0vmA-531" value="`StreetAddr` VARCHAR(45) NULL" style="shape=partialRectangle;overflow=hidden;connectable=0;fillColor=none;top=0;left=0;bottom=0;right=0;align=left;spacingLeft=6;" vertex="1" parent="kgfX2LjA7u4LWj4O0vmA-529">
          <mxGeometry x="30" width="210" height="30" as="geometry" />
        </mxCell>
        <mxCell id="kgfX2LjA7u4LWj4O0vmA-532" value="" style="shape=partialRectangle;collapsible=0;dropTarget=0;pointerEvents=0;fillColor=none;points=[[0,0.5],[1,0.5]];portConstraint=eastwest;top=0;left=0;right=0;bottom=0;" vertex="1" parent="kgfX2LjA7u4LWj4O0vmA-516">
          <mxGeometry y="180" width="240" height="30" as="geometry" />
        </mxCell>
        <mxCell id="kgfX2LjA7u4LWj4O0vmA-533" value="" style="shape=partialRectangle;overflow=hidden;connectable=0;fillColor=none;top=0;left=0;bottom=0;right=0;" vertex="1" parent="kgfX2LjA7u4LWj4O0vmA-532">
          <mxGeometry width="30" height="30" as="geometry" />
        </mxCell>
        <mxCell id="kgfX2LjA7u4LWj4O0vmA-534" value="`City` VARCHAR(45) NULL" style="shape=partialRectangle;overflow=hidden;connectable=0;fillColor=none;top=0;left=0;bottom=0;right=0;align=left;spacingLeft=6;" vertex="1" parent="kgfX2LjA7u4LWj4O0vmA-532">
          <mxGeometry x="30" width="210" height="30" as="geometry" />
        </mxCell>
        <mxCell id="kgfX2LjA7u4LWj4O0vmA-535" value="" style="shape=partialRectangle;collapsible=0;dropTarget=0;pointerEvents=0;fillColor=none;points=[[0,0.5],[1,0.5]];portConstraint=eastwest;top=0;left=0;right=0;bottom=0;" vertex="1" parent="kgfX2LjA7u4LWj4O0vmA-516">
          <mxGeometry y="210" width="240" height="30" as="geometry" />
        </mxCell>
        <mxCell id="kgfX2LjA7u4LWj4O0vmA-536" value="" style="shape=partialRectangle;overflow=hidden;connectable=0;fillColor=none;top=0;left=0;bottom=0;right=0;" vertex="1" parent="kgfX2LjA7u4LWj4O0vmA-535">
          <mxGeometry width="30" height="30" as="geometry" />
        </mxCell>
        <mxCell id="kgfX2LjA7u4LWj4O0vmA-537" value="`State` VARCHAR(45) NULL" style="shape=partialRectangle;overflow=hidden;connectable=0;fillColor=none;top=0;left=0;bottom=0;right=0;align=left;spacingLeft=6;" vertex="1" parent="kgfX2LjA7u4LWj4O0vmA-535">
          <mxGeometry x="30" width="210" height="30" as="geometry" />
        </mxCell>
        <mxCell id="kgfX2LjA7u4LWj4O0vmA-538" value="" style="shape=partialRectangle;collapsible=0;dropTarget=0;pointerEvents=0;fillColor=none;points=[[0,0.5],[1,0.5]];portConstraint=eastwest;top=0;left=0;right=0;bottom=0;" vertex="1" parent="kgfX2LjA7u4LWj4O0vmA-516">
          <mxGeometry y="240" width="240" height="30" as="geometry" />
        </mxCell>
        <mxCell id="kgfX2LjA7u4LWj4O0vmA-539" value="" style="shape=partialRectangle;overflow=hidden;connectable=0;fillColor=none;top=0;left=0;bottom=0;right=0;" vertex="1" parent="kgfX2LjA7u4LWj4O0vmA-538">
          <mxGeometry width="30" height="30" as="geometry" />
        </mxCell>
        <mxCell id="kgfX2LjA7u4LWj4O0vmA-540" value="`Country` VARCHAR(45) NULL" style="shape=partialRectangle;overflow=hidden;connectable=0;fillColor=none;top=0;left=0;bottom=0;right=0;align=left;spacingLeft=6;" vertex="1" parent="kgfX2LjA7u4LWj4O0vmA-538">
          <mxGeometry x="30" width="210" height="30" as="geometry" />
        </mxCell>
        <mxCell id="kgfX2LjA7u4LWj4O0vmA-541" value="" style="shape=partialRectangle;collapsible=0;dropTarget=0;pointerEvents=0;fillColor=none;points=[[0,0.5],[1,0.5]];portConstraint=eastwest;top=0;left=0;right=0;bottom=0;" vertex="1" parent="kgfX2LjA7u4LWj4O0vmA-516">
          <mxGeometry y="270" width="240" height="30" as="geometry" />
        </mxCell>
        <mxCell id="kgfX2LjA7u4LWj4O0vmA-542" value="" style="shape=partialRectangle;overflow=hidden;connectable=0;fillColor=none;top=0;left=0;bottom=0;right=0;" vertex="1" parent="kgfX2LjA7u4LWj4O0vmA-541">
          <mxGeometry width="30" height="30" as="geometry" />
        </mxCell>
        <mxCell id="kgfX2LjA7u4LWj4O0vmA-543" value="`Occupation` VARCHAR(45) NULL )" style="shape=partialRectangle;overflow=hidden;connectable=0;fillColor=none;top=0;left=0;bottom=0;right=0;align=left;spacingLeft=6;" vertex="1" parent="kgfX2LjA7u4LWj4O0vmA-541">
          <mxGeometry x="30" width="210" height="30" as="geometry" />
        </mxCell>
        <mxCell id="kgfX2LjA7u4LWj4O0vmA-544" value="" style="shape=partialRectangle;collapsible=0;dropTarget=0;pointerEvents=0;fillColor=none;points=[[0,0.5],[1,0.5]];portConstraint=eastwest;top=0;left=0;right=0;bottom=0;" vertex="1" parent="kgfX2LjA7u4LWj4O0vmA-516">
          <mxGeometry y="300" width="240" height="30" as="geometry" />
        </mxCell>
        <mxCell id="kgfX2LjA7u4LWj4O0vmA-545" value="" style="shape=partialRectangle;overflow=hidden;connectable=0;fillColor=none;top=0;left=0;bottom=0;right=0;" vertex="1" parent="kgfX2LjA7u4LWj4O0vmA-544">
          <mxGeometry width="30" height="30" as="geometry" />
        </mxCell>
        <mxCell id="kgfX2LjA7u4LWj4O0vmA-546" value="" style="shape=partialRectangle;overflow=hidden;connectable=0;fillColor=none;top=0;left=0;bottom=0;right=0;align=left;spacingLeft=6;" vertex="1" parent="kgfX2LjA7u4LWj4O0vmA-544">
          <mxGeometry x="30" width="210" height="30" as="geometry" />
        </mxCell>
        <mxCell id="kgfX2LjA7u4LWj4O0vmA-547" value="IF NOT EXISTS `mydb`.`CustomerVisits`" style="shape=table;startSize=30;container=1;collapsible=1;childLayout=tableLayout;fixedRows=1;rowLines=0;fontStyle=1;align=center;resizeLast=1;" vertex="1" parent="1">
          <mxGeometry x="295" y="380" width="290" height="160" as="geometry" />
        </mxCell>
        <mxCell id="kgfX2LjA7u4LWj4O0vmA-548" value="" style="shape=partialRectangle;collapsible=0;dropTarget=0;pointerEvents=0;fillColor=none;points=[[0,0.5],[1,0.5]];portConstraint=eastwest;top=0;left=0;right=0;bottom=0;" vertex="1" parent="kgfX2LjA7u4LWj4O0vmA-547">
          <mxGeometry y="30" width="290" height="30" as="geometry" />
        </mxCell>
        <mxCell id="kgfX2LjA7u4LWj4O0vmA-549" value="" style="shape=partialRectangle;overflow=hidden;connectable=0;fillColor=none;top=0;left=0;bottom=0;right=0;" vertex="1" parent="kgfX2LjA7u4LWj4O0vmA-548">
          <mxGeometry width="30" height="30" as="geometry" />
        </mxCell>
        <mxCell id="kgfX2LjA7u4LWj4O0vmA-550" value="`CustomerVisitsID` INT NOT NULL" style="shape=partialRectangle;overflow=hidden;connectable=0;fillColor=none;top=0;left=0;bottom=0;right=0;align=left;spacingLeft=6;" vertex="1" parent="kgfX2LjA7u4LWj4O0vmA-548">
          <mxGeometry x="30" width="260" height="30" as="geometry" />
        </mxCell>
        <mxCell id="kgfX2LjA7u4LWj4O0vmA-551" value="" style="shape=partialRectangle;collapsible=0;dropTarget=0;pointerEvents=0;fillColor=none;points=[[0,0.5],[1,0.5]];portConstraint=eastwest;top=0;left=0;right=0;bottom=0;" vertex="1" parent="kgfX2LjA7u4LWj4O0vmA-547">
          <mxGeometry y="60" width="290" height="30" as="geometry" />
        </mxCell>
        <mxCell id="kgfX2LjA7u4LWj4O0vmA-552" value="" style="shape=partialRectangle;overflow=hidden;connectable=0;fillColor=none;top=0;left=0;bottom=0;right=0;" vertex="1" parent="kgfX2LjA7u4LWj4O0vmA-551">
          <mxGeometry width="30" height="30" as="geometry" />
        </mxCell>
        <mxCell id="kgfX2LjA7u4LWj4O0vmA-553" value="`CustomerID` INT NULL" style="shape=partialRectangle;overflow=hidden;connectable=0;fillColor=none;top=0;left=0;bottom=0;right=0;align=left;spacingLeft=6;" vertex="1" parent="kgfX2LjA7u4LWj4O0vmA-551">
          <mxGeometry x="30" width="260" height="30" as="geometry" />
        </mxCell>
        <mxCell id="kgfX2LjA7u4LWj4O0vmA-554" value="" style="shape=partialRectangle;collapsible=0;dropTarget=0;pointerEvents=0;fillColor=none;points=[[0,0.5],[1,0.5]];portConstraint=eastwest;top=0;left=0;right=0;bottom=0;" vertex="1" parent="kgfX2LjA7u4LWj4O0vmA-547">
          <mxGeometry y="90" width="290" height="30" as="geometry" />
        </mxCell>
        <mxCell id="kgfX2LjA7u4LWj4O0vmA-555" value="" style="shape=partialRectangle;overflow=hidden;connectable=0;fillColor=none;top=0;left=0;bottom=0;right=0;" vertex="1" parent="kgfX2LjA7u4LWj4O0vmA-554">
          <mxGeometry width="30" height="30" as="geometry" />
        </mxCell>
        <mxCell id="kgfX2LjA7u4LWj4O0vmA-556" value="`ReasonForEnquiry` VARCHAR(300) NULL)" style="shape=partialRectangle;overflow=hidden;connectable=0;fillColor=none;top=0;left=0;bottom=0;right=0;align=left;spacingLeft=6;" vertex="1" parent="kgfX2LjA7u4LWj4O0vmA-554">
          <mxGeometry x="30" width="260" height="30" as="geometry" />
        </mxCell>
        <mxCell id="kgfX2LjA7u4LWj4O0vmA-557" value="" style="shape=partialRectangle;collapsible=0;dropTarget=0;pointerEvents=0;fillColor=none;points=[[0,0.5],[1,0.5]];portConstraint=eastwest;top=0;left=0;right=0;bottom=0;" vertex="1" parent="kgfX2LjA7u4LWj4O0vmA-547">
          <mxGeometry y="120" width="290" height="30" as="geometry" />
        </mxCell>
        <mxCell id="kgfX2LjA7u4LWj4O0vmA-558" value="" style="shape=partialRectangle;overflow=hidden;connectable=0;fillColor=none;top=0;left=0;bottom=0;right=0;" vertex="1" parent="kgfX2LjA7u4LWj4O0vmA-557">
          <mxGeometry width="30" height="30" as="geometry" />
        </mxCell>
        <mxCell id="kgfX2LjA7u4LWj4O0vmA-559" value="" style="shape=partialRectangle;overflow=hidden;connectable=0;fillColor=none;top=0;left=0;bottom=0;right=0;align=left;spacingLeft=6;" vertex="1" parent="kgfX2LjA7u4LWj4O0vmA-557">
          <mxGeometry x="30" width="260" height="30" as="geometry" />
        </mxCell>
        <mxCell id="kgfX2LjA7u4LWj4O0vmA-479" value="IF NOT EXISTS `mydb`.`Vehicles`" style="shape=table;startSize=30;container=1;collapsible=1;childLayout=tableLayout;fixedRows=1;rowLines=0;fontStyle=1;align=center;resizeLast=1;" vertex="1" parent="1">
          <mxGeometry x="320" y="770" width="240" height="400" as="geometry" />
        </mxCell>
        <mxCell id="kgfX2LjA7u4LWj4O0vmA-480" value="" style="shape=partialRectangle;collapsible=0;dropTarget=0;pointerEvents=0;fillColor=none;points=[[0,0.5],[1,0.5]];portConstraint=eastwest;top=0;left=0;right=0;bottom=0;" vertex="1" parent="kgfX2LjA7u4LWj4O0vmA-479">
          <mxGeometry y="30" width="240" height="30" as="geometry" />
        </mxCell>
        <mxCell id="kgfX2LjA7u4LWj4O0vmA-481" value="" style="shape=partialRectangle;overflow=hidden;connectable=0;fillColor=none;top=0;left=0;bottom=0;right=0;" vertex="1" parent="kgfX2LjA7u4LWj4O0vmA-480">
          <mxGeometry width="30" height="30" as="geometry" />
        </mxCell>
        <mxCell id="kgfX2LjA7u4LWj4O0vmA-482" value="`VIN` CHAR(17) NOT NULL" style="shape=partialRectangle;overflow=hidden;connectable=0;fillColor=none;top=0;left=0;bottom=0;right=0;align=left;spacingLeft=6;" vertex="1" parent="kgfX2LjA7u4LWj4O0vmA-480">
          <mxGeometry x="30" width="210" height="30" as="geometry" />
        </mxCell>
        <mxCell id="kgfX2LjA7u4LWj4O0vmA-483" value="" style="shape=partialRectangle;collapsible=0;dropTarget=0;pointerEvents=0;fillColor=none;points=[[0,0.5],[1,0.5]];portConstraint=eastwest;top=0;left=0;right=0;bottom=0;" vertex="1" parent="kgfX2LjA7u4LWj4O0vmA-479">
          <mxGeometry y="60" width="240" height="30" as="geometry" />
        </mxCell>
        <mxCell id="kgfX2LjA7u4LWj4O0vmA-484" value="" style="shape=partialRectangle;overflow=hidden;connectable=0;fillColor=none;top=0;left=0;bottom=0;right=0;" vertex="1" parent="kgfX2LjA7u4LWj4O0vmA-483">
          <mxGeometry width="30" height="30" as="geometry" />
        </mxCell>
        <mxCell id="kgfX2LjA7u4LWj4O0vmA-485" value="`Year` INT NULL" style="shape=partialRectangle;overflow=hidden;connectable=0;fillColor=none;top=0;left=0;bottom=0;right=0;align=left;spacingLeft=6;" vertex="1" parent="kgfX2LjA7u4LWj4O0vmA-483">
          <mxGeometry x="30" width="210" height="30" as="geometry" />
        </mxCell>
        <mxCell id="kgfX2LjA7u4LWj4O0vmA-486" value="" style="shape=partialRectangle;collapsible=0;dropTarget=0;pointerEvents=0;fillColor=none;points=[[0,0.5],[1,0.5]];portConstraint=eastwest;top=0;left=0;right=0;bottom=0;" vertex="1" parent="kgfX2LjA7u4LWj4O0vmA-479">
          <mxGeometry y="90" width="240" height="30" as="geometry" />
        </mxCell>
        <mxCell id="kgfX2LjA7u4LWj4O0vmA-487" value="" style="shape=partialRectangle;overflow=hidden;connectable=0;fillColor=none;top=0;left=0;bottom=0;right=0;" vertex="1" parent="kgfX2LjA7u4LWj4O0vmA-486">
          <mxGeometry width="30" height="30" as="geometry" />
        </mxCell>
        <mxCell id="kgfX2LjA7u4LWj4O0vmA-488" value="`Make` VARCHAR(45) NULL" style="shape=partialRectangle;overflow=hidden;connectable=0;fillColor=none;top=0;left=0;bottom=0;right=0;align=left;spacingLeft=6;" vertex="1" parent="kgfX2LjA7u4LWj4O0vmA-486">
          <mxGeometry x="30" width="210" height="30" as="geometry" />
        </mxCell>
        <mxCell id="kgfX2LjA7u4LWj4O0vmA-489" value="" style="shape=partialRectangle;collapsible=0;dropTarget=0;pointerEvents=0;fillColor=none;points=[[0,0.5],[1,0.5]];portConstraint=eastwest;top=0;left=0;right=0;bottom=0;" vertex="1" parent="kgfX2LjA7u4LWj4O0vmA-479">
          <mxGeometry y="120" width="240" height="30" as="geometry" />
        </mxCell>
        <mxCell id="kgfX2LjA7u4LWj4O0vmA-490" value="" style="shape=partialRectangle;overflow=hidden;connectable=0;fillColor=none;top=0;left=0;bottom=0;right=0;" vertex="1" parent="kgfX2LjA7u4LWj4O0vmA-489">
          <mxGeometry width="30" height="30" as="geometry" />
        </mxCell>
        <mxCell id="kgfX2LjA7u4LWj4O0vmA-491" value="`Model` VARCHAR(45) NULL" style="shape=partialRectangle;overflow=hidden;connectable=0;fillColor=none;top=0;left=0;bottom=0;right=0;align=left;spacingLeft=6;" vertex="1" parent="kgfX2LjA7u4LWj4O0vmA-489">
          <mxGeometry x="30" width="210" height="30" as="geometry" />
        </mxCell>
        <mxCell id="kgfX2LjA7u4LWj4O0vmA-492" value="" style="shape=partialRectangle;collapsible=0;dropTarget=0;pointerEvents=0;fillColor=none;points=[[0,0.5],[1,0.5]];portConstraint=eastwest;top=0;left=0;right=0;bottom=0;" vertex="1" parent="kgfX2LjA7u4LWj4O0vmA-479">
          <mxGeometry y="150" width="240" height="30" as="geometry" />
        </mxCell>
        <mxCell id="kgfX2LjA7u4LWj4O0vmA-493" value="" style="shape=partialRectangle;overflow=hidden;connectable=0;fillColor=none;top=0;left=0;bottom=0;right=0;" vertex="1" parent="kgfX2LjA7u4LWj4O0vmA-492">
          <mxGeometry width="30" height="30" as="geometry" />
        </mxCell>
        <mxCell id="kgfX2LjA7u4LWj4O0vmA-494" value="`NoOfDoors` INT NULL" style="shape=partialRectangle;overflow=hidden;connectable=0;fillColor=none;top=0;left=0;bottom=0;right=0;align=left;spacingLeft=6;" vertex="1" parent="kgfX2LjA7u4LWj4O0vmA-492">
          <mxGeometry x="30" width="210" height="30" as="geometry" />
        </mxCell>
        <mxCell id="kgfX2LjA7u4LWj4O0vmA-495" value="" style="shape=partialRectangle;collapsible=0;dropTarget=0;pointerEvents=0;fillColor=none;points=[[0,0.5],[1,0.5]];portConstraint=eastwest;top=0;left=0;right=0;bottom=0;" vertex="1" parent="kgfX2LjA7u4LWj4O0vmA-479">
          <mxGeometry y="180" width="240" height="30" as="geometry" />
        </mxCell>
        <mxCell id="kgfX2LjA7u4LWj4O0vmA-496" value="" style="shape=partialRectangle;overflow=hidden;connectable=0;fillColor=none;top=0;left=0;bottom=0;right=0;" vertex="1" parent="kgfX2LjA7u4LWj4O0vmA-495">
          <mxGeometry width="30" height="30" as="geometry" />
        </mxCell>
        <mxCell id="kgfX2LjA7u4LWj4O0vmA-497" value="`Color` VARCHAR(45) NULL" style="shape=partialRectangle;overflow=hidden;connectable=0;fillColor=none;top=0;left=0;bottom=0;right=0;align=left;spacingLeft=6;" vertex="1" parent="kgfX2LjA7u4LWj4O0vmA-495">
          <mxGeometry x="30" width="210" height="30" as="geometry" />
        </mxCell>
        <mxCell id="kgfX2LjA7u4LWj4O0vmA-498" value="" style="shape=partialRectangle;collapsible=0;dropTarget=0;pointerEvents=0;fillColor=none;points=[[0,0.5],[1,0.5]];portConstraint=eastwest;top=0;left=0;right=0;bottom=0;" vertex="1" parent="kgfX2LjA7u4LWj4O0vmA-479">
          <mxGeometry y="210" width="240" height="30" as="geometry" />
        </mxCell>
        <mxCell id="kgfX2LjA7u4LWj4O0vmA-499" value="" style="shape=partialRectangle;overflow=hidden;connectable=0;fillColor=none;top=0;left=0;bottom=0;right=0;" vertex="1" parent="kgfX2LjA7u4LWj4O0vmA-498">
          <mxGeometry width="30" height="30" as="geometry" />
        </mxCell>
        <mxCell id="kgfX2LjA7u4LWj4O0vmA-500" value="`CarType` VARCHAR(45) NULL" style="shape=partialRectangle;overflow=hidden;connectable=0;fillColor=none;top=0;left=0;bottom=0;right=0;align=left;spacingLeft=6;" vertex="1" parent="kgfX2LjA7u4LWj4O0vmA-498">
          <mxGeometry x="30" width="210" height="30" as="geometry" />
        </mxCell>
        <mxCell id="kgfX2LjA7u4LWj4O0vmA-501" value="" style="shape=partialRectangle;collapsible=0;dropTarget=0;pointerEvents=0;fillColor=none;points=[[0,0.5],[1,0.5]];portConstraint=eastwest;top=0;left=0;right=0;bottom=0;" vertex="1" parent="kgfX2LjA7u4LWj4O0vmA-479">
          <mxGeometry y="240" width="240" height="30" as="geometry" />
        </mxCell>
        <mxCell id="kgfX2LjA7u4LWj4O0vmA-502" value="" style="shape=partialRectangle;overflow=hidden;connectable=0;fillColor=none;top=0;left=0;bottom=0;right=0;" vertex="1" parent="kgfX2LjA7u4LWj4O0vmA-501">
          <mxGeometry width="30" height="30" as="geometry" />
        </mxCell>
        <mxCell id="kgfX2LjA7u4LWj4O0vmA-503" value="`EngineType` VARCHAR(45) NULL" style="shape=partialRectangle;overflow=hidden;connectable=0;fillColor=none;top=0;left=0;bottom=0;right=0;align=left;spacingLeft=6;" vertex="1" parent="kgfX2LjA7u4LWj4O0vmA-501">
          <mxGeometry x="30" width="210" height="30" as="geometry" />
        </mxCell>
        <mxCell id="kgfX2LjA7u4LWj4O0vmA-504" value="" style="shape=partialRectangle;collapsible=0;dropTarget=0;pointerEvents=0;fillColor=none;points=[[0,0.5],[1,0.5]];portConstraint=eastwest;top=0;left=0;right=0;bottom=0;" vertex="1" parent="kgfX2LjA7u4LWj4O0vmA-479">
          <mxGeometry y="270" width="240" height="30" as="geometry" />
        </mxCell>
        <mxCell id="kgfX2LjA7u4LWj4O0vmA-505" value="" style="shape=partialRectangle;overflow=hidden;connectable=0;fillColor=none;top=0;left=0;bottom=0;right=0;" vertex="1" parent="kgfX2LjA7u4LWj4O0vmA-504">
          <mxGeometry width="30" height="30" as="geometry" />
        </mxCell>
        <mxCell id="kgfX2LjA7u4LWj4O0vmA-506" value="`Edition` VARCHAR(45) NULL" style="shape=partialRectangle;overflow=hidden;connectable=0;fillColor=none;top=0;left=0;bottom=0;right=0;align=left;spacingLeft=6;" vertex="1" parent="kgfX2LjA7u4LWj4O0vmA-504">
          <mxGeometry x="30" width="210" height="30" as="geometry" />
        </mxCell>
        <mxCell id="kgfX2LjA7u4LWj4O0vmA-507" value="" style="shape=partialRectangle;collapsible=0;dropTarget=0;pointerEvents=0;fillColor=none;points=[[0,0.5],[1,0.5]];portConstraint=eastwest;top=0;left=0;right=0;bottom=0;" vertex="1" parent="kgfX2LjA7u4LWj4O0vmA-479">
          <mxGeometry y="300" width="240" height="30" as="geometry" />
        </mxCell>
        <mxCell id="kgfX2LjA7u4LWj4O0vmA-508" value="" style="shape=partialRectangle;overflow=hidden;connectable=0;fillColor=none;top=0;left=0;bottom=0;right=0;" vertex="1" parent="kgfX2LjA7u4LWj4O0vmA-507">
          <mxGeometry width="30" height="30" as="geometry" />
        </mxCell>
        <mxCell id="kgfX2LjA7u4LWj4O0vmA-509" value="`DriveTrain` VARCHAR(45) NULL" style="shape=partialRectangle;overflow=hidden;connectable=0;fillColor=none;top=0;left=0;bottom=0;right=0;align=left;spacingLeft=6;" vertex="1" parent="kgfX2LjA7u4LWj4O0vmA-507">
          <mxGeometry x="30" width="210" height="30" as="geometry" />
        </mxCell>
        <mxCell id="kgfX2LjA7u4LWj4O0vmA-510" value="" style="shape=partialRectangle;collapsible=0;dropTarget=0;pointerEvents=0;fillColor=none;points=[[0,0.5],[1,0.5]];portConstraint=eastwest;top=0;left=0;right=0;bottom=0;" vertex="1" parent="kgfX2LjA7u4LWj4O0vmA-479">
          <mxGeometry y="330" width="240" height="30" as="geometry" />
        </mxCell>
        <mxCell id="kgfX2LjA7u4LWj4O0vmA-511" value="" style="shape=partialRectangle;overflow=hidden;connectable=0;fillColor=none;top=0;left=0;bottom=0;right=0;" vertex="1" parent="kgfX2LjA7u4LWj4O0vmA-510">
          <mxGeometry width="30" height="30" as="geometry" />
        </mxCell>
        <mxCell id="kgfX2LjA7u4LWj4O0vmA-512" value="`MSRP` FLOAT NULL" style="shape=partialRectangle;overflow=hidden;connectable=0;fillColor=none;top=0;left=0;bottom=0;right=0;align=left;spacingLeft=6;" vertex="1" parent="kgfX2LjA7u4LWj4O0vmA-510">
          <mxGeometry x="30" width="210" height="30" as="geometry" />
        </mxCell>
        <mxCell id="kgfX2LjA7u4LWj4O0vmA-513" value="" style="shape=partialRectangle;collapsible=0;dropTarget=0;pointerEvents=0;fillColor=none;points=[[0,0.5],[1,0.5]];portConstraint=eastwest;top=0;left=0;right=0;bottom=0;" vertex="1" parent="kgfX2LjA7u4LWj4O0vmA-479">
          <mxGeometry y="360" width="240" height="30" as="geometry" />
        </mxCell>
        <mxCell id="kgfX2LjA7u4LWj4O0vmA-514" value="" style="shape=partialRectangle;overflow=hidden;connectable=0;fillColor=none;top=0;left=0;bottom=0;right=0;" vertex="1" parent="kgfX2LjA7u4LWj4O0vmA-513">
          <mxGeometry width="30" height="30" as="geometry" />
        </mxCell>
        <mxCell id="kgfX2LjA7u4LWj4O0vmA-515" value="" style="shape=partialRectangle;overflow=hidden;connectable=0;fillColor=none;top=0;left=0;bottom=0;right=0;align=left;spacingLeft=6;" vertex="1" parent="kgfX2LjA7u4LWj4O0vmA-513">
          <mxGeometry x="30" width="210" height="30" as="geometry" />
        </mxCell>
      </root>
    </mxGraphModel>
  </diagram>
</mxfile>
